<!-- icon666.com - MILLIONS OF FREE VECTOR ICONS --><svg id="Capa_1" enable-background="new 0 0 512 512" viewBox="0 0 512 512" xmlns="http://www.w3.org/2000/svg"><g><path d="m393.946 7.5h-30v497h30c16.569 0 30-13.431 30-30v-437c0-16.569-13.431-30-30-30z" fill="#92e9f7"></path><path d="m393.946 474.5v-437c0-16.569-13.431-30-30-30h-245.892c-16.568 0-30 13.431-30 30v437c0 16.569 13.432 30 30 30h245.893c16.568 0 29.999-13.431 29.999-30z" fill="#aafaf5"></path><path d="m241 459.5v-407c0-8.284 6.716-15 15-15s15 6.716 15 15v407c0 8.284-6.716 15-15 15-8.285 0-15-6.716-15-15z" fill="#defffd"></path><path d="m183.116 37.5c-3.099 0-6.079.508-8.864 1.442l-9.726 85.308s46.467-25.115 46.473-58.866c.001-15.4-12.483-27.884-27.883-27.884z" fill="#e52c36"></path><path d="m174.252 38.942c-3.633 1.219-6.933 3.164-9.726 5.664-4.933-4.417-11.446-7.106-18.589-7.106-15.4 0-27.884 12.484-27.884 27.884.006 33.751 46.473 58.866 46.473 58.866s16.471-25.115 16.474-58.866c0-12.306-2.827-22.742-6.748-26.442z" fill="#fc424b"></path><path d="m183.116 154.25c-3.099 0-6.079.508-8.864 1.442l-9.725 85.308s46.467-25.115 46.473-58.866c0-15.4-12.484-27.884-27.884-27.884z" fill="#e52c36"></path><path d="m174.252 155.692c-3.633 1.219-6.933 3.164-9.726 5.664-4.933-4.417-11.446-7.106-18.589-7.106-15.4 0-27.884 12.484-27.884 27.884.007 33.751 46.474 58.866 46.474 58.866s16.471-25.115 16.473-58.866c0-12.306-2.827-22.742-6.748-26.442z" fill="#fc424b"></path><path d="m183.116 271c-3.099 0-6.079.508-8.864 1.442l-9.726 85.308s46.467-25.115 46.473-58.866c.001-15.4-12.483-27.884-27.883-27.884z" fill="#e52c36"></path><path d="m174.252 272.442c-3.633 1.219-6.933 3.164-9.726 5.664-4.933-4.417-11.446-7.106-18.589-7.106-15.4 0-27.884 12.484-27.884 27.884.006 33.751 46.473 58.866 46.473 58.866s16.471-25.115 16.473-58.866c.001-12.306-2.826-22.742-6.747-26.442z" fill="#fc424b"></path><path d="m183.116 387.75c-3.099 0-6.079.508-8.864 1.442l-9.726 85.308s46.467-25.115 46.473-58.866c.001-15.4-12.483-27.884-27.883-27.884z" fill="#e52c36"></path><path d="m174.252 389.192c-3.633 1.219-6.933 3.164-9.726 5.664-4.933-4.417-11.446-7.106-18.589-7.106-15.4 0-27.884 12.484-27.884 27.884.006 33.751 46.473 58.866 46.473 58.866s16.471-25.115 16.473-58.866c.001-12.306-2.826-22.742-6.747-26.442z" fill="#fc424b"></path><path d="m366.063 37.5c-3.099 0-6.079.508-8.864 1.442l-9.726 85.308s46.467-25.115 46.473-58.866c0-15.4-12.484-27.884-27.883-27.884z" fill="#e52c36"></path><path d="m357.199 38.942c-3.633 1.219-6.933 3.164-9.726 5.664-4.933-4.417-11.446-7.106-18.589-7.106-15.4 0-27.884 12.484-27.884 27.884.006 33.751 46.473 58.866 46.473 58.866s16.471-25.115 16.473-58.866c0-12.306-2.827-22.742-6.747-26.442z" fill="#fc424b"></path><path d="m366.063 154.25c-3.099 0-6.079.508-8.864 1.442l-9.726 85.308s46.467-25.115 46.473-58.866c0-15.4-12.483-27.884-27.883-27.884z" fill="#e52c36"></path><path d="m357.199 155.692c-3.633 1.219-6.933 3.164-9.726 5.664-4.933-4.417-11.446-7.106-18.589-7.106-15.4 0-27.884 12.484-27.884 27.884.007 33.751 46.473 58.866 46.473 58.866s16.471-25.115 16.473-58.866c0-12.306-2.826-22.742-6.747-26.442z" fill="#fc424b"></path><path d="m366.063 271c-3.099 0-6.079.508-8.864 1.442l-9.726 85.308s46.467-25.115 46.473-58.866c0-15.4-12.483-27.884-27.883-27.884z" fill="#e52c36"></path><path d="m357.199 272.442c-3.633 1.219-6.933 3.164-9.726 5.664-4.933-4.417-11.446-7.106-18.589-7.106-15.4 0-27.884 12.484-27.884 27.884.006 33.751 46.473 58.866 46.473 58.866s16.471-25.115 16.473-58.866c0-12.306-2.826-22.742-6.747-26.442z" fill="#fc424b"></path><path d="m366.063 387.75c-3.099 0-6.079.508-8.864 1.442l-9.726 85.308s46.467-25.115 46.473-58.866c0-15.4-12.483-27.884-27.883-27.884z" fill="#e52c36"></path><path d="m357.199 389.192c-3.633 1.219-6.933 3.164-9.726 5.664-4.933-4.417-11.446-7.106-18.589-7.106-15.4 0-27.884 12.484-27.884 27.884.006 33.751 46.473 58.866 46.473 58.866s16.471-25.115 16.473-58.866c0-12.306-2.826-22.742-6.747-26.442z" fill="#fc424b"></path><path d="m393.946 0h-275.892c-20.678 0-37.5 16.822-37.5 37.5v437c0 20.678 16.822 37.5 37.5 37.5h275.893c20.678 0 37.5-16.822 37.5-37.5v-437c-.001-20.678-16.823-37.5-37.501-37.5zm22.5 474.5c0 12.407-10.093 22.5-22.5 22.5h-275.892c-12.407 0-22.5-10.093-22.5-22.5v-437c0-12.407 10.093-22.5 22.5-22.5h275.893c12.407 0 22.5 10.093 22.5 22.5v437z"></path><path d="m256 30c-12.406 0-22.5 10.093-22.5 22.499l-.013 114.634c0 4.142 3.357 7.5 7.499 7.501 4.143 0 7.5-3.357 7.501-7.499l.013-114.635c0-4.136 3.364-7.5 7.5-7.5s7.5 3.364 7.5 7.5v407c0 4.136-3.364 7.5-7.5 7.5-4.135 0-7.5-3.364-7.5-7.5l-.013-262.366c0-4.142-3.358-7.5-7.5-7.5s-7.5 3.358-7.5 7.5l.013 262.366c0 12.407 10.093 22.5 22.5 22.5s22.5-10.093 22.5-22.5v-407c0-12.407-10.094-22.5-22.5-22.5z"></path><path d="m366.063 146.75c-6.617 0-13.038 1.845-18.589 5.277-5.551-3.433-11.972-5.277-18.589-5.277-19.511 0-35.384 15.873-35.384 35.385.007 37.787 48.349 64.351 50.407 65.463 1.113.601 2.34.902 3.566.902s2.454-.301 3.566-.902c2.058-1.112 50.399-27.676 50.407-65.464-.001-19.511-15.874-35.384-35.384-35.384zm-18.59 85.537c-10.243-6.363-38.969-26.335-38.973-50.153 0-11.24 9.144-20.384 20.384-20.384 5.021 0 9.846 1.845 13.587 5.194 2.848 2.55 7.157 2.55 10.005 0 3.741-3.349 8.566-5.194 13.587-5.194 11.24 0 20.384 9.144 20.384 20.382-.005 23.821-28.736 43.795-38.974 50.155z"></path><path d="m366.063 30c-6.617 0-13.038 1.845-18.589 5.277-5.552-3.432-11.973-5.277-18.59-5.277-19.511 0-35.384 15.873-35.384 35.385.007 37.787 48.349 64.351 50.407 65.463 1.113.601 2.34.902 3.566.902s2.454-.301 3.566-.902c2.058-1.112 50.399-27.676 50.407-65.464 0-19.511-15.873-35.384-35.383-35.384zm-18.59 85.537c-10.243-6.363-38.969-26.335-38.973-50.153 0-11.24 9.144-20.384 20.384-20.384 5.021 0 9.846 1.845 13.587 5.194 2.848 2.55 7.157 2.55 10.005 0 3.741-3.349 8.566-5.194 13.587-5.194 11.24 0 20.384 9.144 20.384 20.382-.005 23.821-28.736 43.795-38.974 50.155z"></path><path d="m366.063 380.25c-6.617 0-13.038 1.845-18.589 5.277-5.551-3.433-11.972-5.277-18.589-5.277-19.511 0-35.384 15.873-35.384 35.385.007 37.787 48.349 64.351 50.407 65.463 1.113.601 2.34.902 3.566.902s2.454-.301 3.566-.902c2.058-1.112 50.399-27.676 50.407-65.464-.001-19.511-15.874-35.384-35.384-35.384zm-18.59 85.537c-10.243-6.363-38.969-26.335-38.973-50.153 0-11.24 9.144-20.384 20.384-20.384 5.021 0 9.846 1.845 13.587 5.194 2.848 2.55 7.157 2.55 10.005 0 3.741-3.349 8.566-5.194 13.587-5.194 11.24 0 20.384 9.144 20.384 20.382-.005 23.821-28.736 43.795-38.974 50.155z"></path><path d="m366.063 263.5c-6.617 0-13.038 1.845-18.589 5.277-5.551-3.433-11.972-5.277-18.589-5.277-19.511 0-35.384 15.873-35.384 35.385.007 37.787 48.349 64.351 50.407 65.463 1.113.601 2.34.902 3.566.902s2.454-.301 3.566-.902c2.058-1.112 50.399-27.676 50.407-65.464-.001-19.511-15.874-35.384-35.384-35.384zm-18.59 85.537c-10.243-6.363-38.969-26.335-38.973-50.153 0-11.24 9.144-20.384 20.384-20.384 5.021 0 9.846 1.845 13.587 5.194 2.848 2.55 7.157 2.55 10.005 0 3.741-3.349 8.566-5.194 13.587-5.194 11.24 0 20.384 9.144 20.384 20.382-.005 23.821-28.736 43.795-38.974 50.155z"></path><path d="m183.116 146.75c-6.617 0-13.038 1.845-18.589 5.277-5.551-3.433-11.972-5.277-18.589-5.277-19.511 0-35.384 15.873-35.384 35.385.007 37.787 48.349 64.351 50.407 65.463 1.113.601 2.34.902 3.566.902s2.454-.301 3.566-.902c2.058-1.112 50.399-27.676 50.407-65.464 0-19.511-15.873-35.384-35.384-35.384zm-18.589 85.537c-10.243-6.363-38.969-26.335-38.973-50.153 0-11.24 9.144-20.384 20.384-20.384 5.021 0 9.846 1.845 13.587 5.194 2.848 2.55 7.157 2.55 10.005 0 3.741-3.349 8.566-5.194 13.587-5.194 11.24 0 20.384 9.144 20.384 20.382-.005 23.821-28.736 43.795-38.974 50.155z"></path><path d="m183.116 30c-6.617 0-13.038 1.845-18.589 5.277-5.551-3.432-11.972-5.277-18.589-5.277-19.511 0-35.384 15.873-35.384 35.385.007 37.787 48.349 64.351 50.407 65.463 1.113.601 2.34.902 3.566.902s2.454-.301 3.566-.902c2.058-1.112 50.399-27.676 50.407-65.464 0-19.511-15.873-35.384-35.384-35.384zm-18.589 85.537c-10.243-6.363-38.969-26.335-38.973-50.153 0-11.24 9.144-20.384 20.384-20.384 5.021 0 9.846 1.845 13.587 5.194 2.848 2.55 7.157 2.55 10.005 0 3.741-3.349 8.566-5.194 13.587-5.194 11.24 0 20.384 9.144 20.384 20.382-.005 23.821-28.736 43.795-38.974 50.155z"></path><path d="m183.116 380.25c-6.617 0-13.038 1.845-18.589 5.277-5.551-3.433-11.972-5.277-18.589-5.277-19.511 0-35.384 15.873-35.384 35.385.007 37.787 48.349 64.351 50.407 65.463 1.113.601 2.34.902 3.566.902s2.454-.301 3.566-.902c2.058-1.112 50.399-27.676 50.407-65.464 0-19.511-15.873-35.384-35.384-35.384zm-18.589 85.537c-10.243-6.363-38.969-26.335-38.973-50.153 0-11.24 9.144-20.384 20.384-20.384 5.021 0 9.846 1.845 13.587 5.194 2.848 2.55 7.157 2.55 10.005 0 3.741-3.349 8.566-5.194 13.587-5.194 11.24 0 20.384 9.144 20.384 20.382-.005 23.821-28.736 43.795-38.974 50.155z"></path><path d="m183.116 263.5c-6.617 0-13.038 1.845-18.589 5.277-5.551-3.433-11.972-5.277-18.589-5.277-19.511 0-35.384 15.873-35.384 35.385.007 37.787 48.349 64.351 50.407 65.463 1.113.601 2.34.902 3.566.902s2.454-.301 3.566-.902c2.058-1.112 50.399-27.676 50.407-65.464 0-19.511-15.873-35.384-35.384-35.384zm-18.589 85.537c-10.243-6.363-38.969-26.335-38.973-50.153 0-11.24 9.144-20.384 20.384-20.384 5.021 0 9.846 1.845 13.587 5.194 2.848 2.55 7.157 2.55 10.005 0 3.741-3.349 8.566-5.194 13.587-5.194 11.24 0 20.384 9.144 20.384 20.382-.005 23.821-28.736 43.795-38.974 50.155z"></path></g></svg>