<!-- icon666.com - MILLIONS OF FREE VECTOR ICONS --><svg xmlns="http://www.w3.org/2000/svg" id="FILOUTLINE" viewBox="0 0 64 64"><g id="_22-Romantic" data-name="22-Romantic"><path d="M59.4089,51.8216a16.1851,16.1851,0,0,1-9.0793,8.22,15.7787,15.7787,0,0,1-12.1222-.5354L25.07,53.3306a4.1084,4.1084,0,0,1-1.965-5.59,4.0326,4.0326,0,0,1,2.1613-1.8522,3.9524,3.9524,0,0,1,3.026.1317l-1.5466-.727a3.9937,3.9937,0,0,1,.1871-7.4465,3.9941,3.9941,0,0,1,3.0351.136l-1.5466-.727a3.9937,3.9937,0,0,1,.1872-7.4465,3.9937,3.9937,0,0,1,3.0351.136L21.0172,24.95a4.1084,4.1084,0,0,1-1.965-5.59,4.0319,4.0319,0,0,1,2.1613-1.8522,3.9517,3.9517,0,0,1,3.0259.1317L52.0428,30.7088A15.7164,15.7164,0,0,1,59.4089,51.8216Z" fill="#fecc81"></path><path d="M39.0327,24.5933,29.025,19.8891a24.774,24.774,0,0,1-.09-4.455A5.0016,5.0016,0,0,1,31.3911,12.34a2.9732,2.9732,0,0,1,2.2218-.2049,1.8511,1.8511,0,0,1,.2131.0821c1.5648.7356.5225,3.5551,1.4774,6.21A28.6121,28.6121,0,0,0,39.0327,24.5933Z" fill="#fcb64d"></path><path d="M17.4885,3.8536C15.56,2.4252,12.5073,3.1736,11,5,9.4927,3.1736,6.72,2.4252,4.792,3.8536A4.2069,4.2069,0,0,0,3,7.1672a8.0674,8.0674,0,0,0,2.0146,4.6706A23.3825,23.3825,0,0,0,11,17a23.0966,23.0966,0,0,0,6.1022-5.1622,8.0878,8.0878,0,0,0,2.0146-4.7167A3.952,3.952,0,0,0,17.4885,3.8536Z" fill="#ef5451"></path><path d="M61.0273,38.9922a16.4556,16.4556,0,0,0-8.5585-9.4443L39.6762,23.5346a26.4856,26.4856,0,0,1-3.4311-5.7016,9.9565,9.9565,0,0,1-.4316-3.0176c-.0567-1.5127-.1153-3.0781-1.5635-3.76a2.9,2.9,0,0,0-.3291-.127,3.9912,3.9912,0,0,0-2.9756.26,5.9791,5.9791,0,0,0-2.9883,3.7783,14.1191,14.1191,0,0,0-.0577,3.032l-3.2343-1.52a4.9426,4.9426,0,0,0-3.7968-.165,5.04,5.04,0,0,0-2.6924,2.3076,4.8042,4.8042,0,0,0-.34,3.8408A5.2739,5.2739,0,0,0,20.5918,25.6l7.0332,3.3057a5.1266,5.1266,0,0,0-2.0537,2.0166,4.7975,4.7975,0,0,0-.3379,3.8369,5.3075,5.3075,0,0,0,1.1582,1.9717,5.1428,5.1428,0,0,0-2.4961,2.23,4.8,4.8,0,0,0-.3379,3.8379,5.3017,5.3017,0,0,0,1.1631,1.9746,5.0185,5.0185,0,0,0-2.49,2.2285,4.8017,4.8017,0,0,0-.3418,3.84,5.2711,5.2711,0,0,0,2.7558,3.14l13.1367,6.1748a16.6785,16.6785,0,0,0,7.1055,1.5937,17.162,17.162,0,0,0,15.4238-9.751A16.8157,16.8157,0,0,0,61.0273,38.9922ZM29.9111,15.3916A4.0163,4.0163,0,0,1,31.8369,12.98a1.9757,1.9757,0,0,1,1.4688-.1484l.0947.0361c.3447.1621.3789,1.0664.4141,2.0234a11.7628,11.7628,0,0,0,.5478,3.6192,18.4959,18.4959,0,0,0,1.7045,3.3282l-6.0959-2.8654A19.44,19.44,0,0,1,29.9111,15.3916ZM58.5078,51.1328A15.1377,15.1377,0,0,1,49.99,58.8447a14.74,14.74,0,0,1-11.3574-.5L25.4961,52.17a3.2662,3.2662,0,0,1-1.7051-1.9453,2.8234,2.8234,0,0,1,.1934-2.2627,3.0225,3.0225,0,0,1,2.6445-1.5693,2.91,2.91,0,0,1,1.2344.2754l.0029.0019a1,1,0,1,0,.8516-1.81l-1.5469-.7276A3.2751,3.2751,0,0,1,25.46,42.1807a2.8206,2.8206,0,0,1,.1855-2.252,3.1288,3.1288,0,0,1,1.6191-1.3945,2.9933,2.9933,0,0,1,2.2764.0967l.002.0009a1,1,0,0,0,.8506-1.81h-.001l-1.5459-.7266a3.2789,3.2789,0,0,1-1.711-1.9531,2.816,2.816,0,0,1,.1856-2.25A3.1248,3.1248,0,0,1,28.94,30.4971a2.9784,2.9784,0,0,1,2.2774.0976,1,1,0,0,0,.8515-1.8105l-.0048-.002L21.4434,23.7891a3.262,3.262,0,0,1-1.7051-1.9444,2.8269,2.8269,0,0,1,.1924-2.2627,3.0356,3.0356,0,0,1,1.6211-1.3886,2.9238,2.9238,0,0,1,2.2617.0957L51.6172,31.3584a14.47,14.47,0,0,1,7.5264,8.3047A14.832,14.832,0,0,1,58.5078,51.1328ZM18.0273,12.0186a8.63,8.63,0,0,0,2.09-5.1534A4.9371,4.9371,0,0,0,18.082,2.793c-2.1474-1.5889-5.1767-1.0078-7.0713.541a5.5411,5.5411,0,0,0-6.8125-.541A5.2082,5.2082,0,0,0,2,6.9111a8.5907,8.5907,0,0,0,2.0879,5.1055l.1142.1484a44.65,44.65,0,0,0,6.1524,6.3428,1,1,0,0,0,1.28.0088,42.97,42.97,0,0,0,6.28-6.3506ZM16.291,10.998a37.8836,37.8836,0,0,1-5.2822,5.4268A39.41,39.41,0,0,1,5.8271,10.998c-.0371-.0507-.0927-.123-.163-.2128A6.7689,6.7689,0,0,1,4,6.9111a3.2082,3.2082,0,0,1,1.3877-2.51,2.8485,2.8485,0,0,1,1.7256-.5586,4.22,4.22,0,0,1,3.1152,1.5381,1.0338,1.0338,0,0,0,1.543,0c1.13-1.37,3.6181-2.0957,5.1211-.9795l.0019.0009a2.9541,2.9541,0,0,1,1.2227,2.4629,6.797,6.797,0,0,1-1.667,3.9229C16.3818,10.877,16.3271,10.9473,16.291,10.998Z"></path></g></svg>