<!-- icon666.com - MILLIONS OF FREE VECTOR ICONS --><svg id="Capa_1" enable-background="new 0 0 512 512" viewBox="0 0 512 512" xmlns="http://www.w3.org/2000/svg"><g><g><path d="m353.865 282.685h48.386v-152.874c0-13.361-10.832-24.193-24.193-24.193s-24.193 10.832-24.193 24.193z" fill="#ffcbbe"></path><g><path d="m288.72 410.072v80.065h133.136v-76.857z" fill="#8cd6fe"></path><path d="m328.038 410.947-39.318-.875v80.065h39.318z" fill="#7acefa"></path></g><g><path d="m257.048 245.879v82.83c0 23.244 12.772 43.494 31.672 54.151v27.212l133.135 3.208v-32.192c17.269-11.038 28.728-30.364 28.728-52.379v-46.023c.033 0 .033-125.053.033-125.053 0-13.361-10.832-24.193-24.193-24.193-13.362 0-24.193 10.832-24.193 24.193v88.247h-145.182z" fill="#ffddcf"></path><g fill="#ffcbbe"><path d="m257.048 257.336v71.372c0 23.244 12.772 43.494 31.672 54.151v27.212l39.542.953-.001-28.166c-18.901-10.657-31.673-30.907-31.673-54.151v-71.372h-39.54z"></path><path d="m450.583 328.708v-46.023c.033 0 .033-59.226.033-59.226-4.842 3.379-8.707 8.254-10.797 14.255l-13.814 35.867c-.41.063-42.525 14.425-47.686 55.451l38.839 46.147c10.078-4.366 18.657-10.263 25.805-16.662 4.854-8.848 7.62-19.003 7.62-29.809z"></path></g></g><path d="m388.423 390.847c57.052 0 85.449-48.148 89.787-63.179.017.006 24.664-62.668 24.664-62.668 5.285-15.171-2.743-31.752-17.921-37.017-15.15-5.255-31.693 2.755-36.968 17.898l-13.814 35.867c-.41.063-40.316 12.159-55.852 47.285z" fill="#ffddcf"></path><path d="m158.135 282.685h-48.386v-152.874c0-13.361 10.832-24.193 24.193-24.193s24.193 10.832 24.193 24.193z" fill="#ffcbbe"></path><g><path d="m90.144 404.725v85.412h133.136v-86.481z" fill="#8cd6fe"></path><path d="m127.536 404.425-37.392.3v85.412h37.392z" fill="#7acefa"></path></g><g><path d="m109.77 245.879v-88.247c0-13.361-10.832-24.193-24.193-24.193s-24.193 10.831-24.193 24.193v125.054c.033 0 .033 46.023.033 46.023 0 22.015 11.459 41.341 28.728 52.379v23.637l133.135-1.069v-20.796c18.901-10.657 31.673-30.907 31.673-54.151v-82.829h-145.183z" fill="#ffddcf"></path><path d="m98.069 268.055s-10.19-26.413-14.092-36.263c-.975-2.46-1.472-5.076-1.472-7.723v-90.43c-11.91 1.51-21.121 11.672-21.121 23.992 0 0 .042 171.587.045 171.842 9.479 15.375 27.566 35.382 55.205 43.742l17.046-44.183c8.306-42.695-35.201-60.914-35.611-60.977z" fill="#ffcbbe"></path></g><g><path d="m123.576 390.847c-57.052 0-85.449-48.148-89.787-63.179-.017.006-24.664-62.668-24.664-62.668-5.285-15.171 2.743-31.752 17.921-37.017 15.15-5.255 31.693 2.755 36.968 17.898l13.814 35.867c.41.063 40.316 12.159 55.852 47.285z" fill="#ffddcf"></path><path d="m67.884 327.667c-.017.006-24.664-62.668-24.664-62.668-4.324-12.413.267-25.765 10.391-33.095-7.424-5.365-17.255-7.151-26.564-3.922-15.178 5.264-23.206 21.845-17.921 37.017l24.648 62.674c4.354 15.025 32.751 63.174 89.803 63.174l6.227-4.011c-35.116-13.361-58.523-47.397-61.92-59.169z" fill="#ffcbbe"></path></g><g><path d="m435.613 124.208c.501-55.55-41.925-102.507-97.462-102.344-34.44 0-64.827 17.867-82.194 44.825-17.367-26.959-47.479-44.825-81.919-44.825-53.893 0-95.252 43.761-97.581 97.631-4.279 98.963 179.111 203.239 179.5 203.029-.005.044 178.773-100.532 179.656-198.316z" fill="#e26e7e"></path><g><path d="m124.672 119.495c1.968-45.519 31.804-83.818 73.52-94.6-7.719-1.974-15.807-3.032-24.154-3.032-53.893 0-95.252 43.762-97.581 97.631-4.279 98.963 179.111 203.239 179.5 203.029-.001.01 9.465-5.309 24.048-14.692-49.736-32.11-158.642-111.811-155.333-188.336z" fill="#de5c6e"></path></g></g><g><path d="m413.69 439.079h-116.804c-14.661 0-26.546-11.885-26.546-26.546s11.885-26.546 26.546-26.546h116.804c14.661 0 26.546 11.885 26.546 26.546 0 14.66-11.885 26.546-26.546 26.546z" fill="#fff9e7"></path><path d="m317.187 412.532c0-14.661 11.885-26.546 26.546-26.546h-46.847c-14.661 0-26.546 11.885-26.546 26.546s11.885 26.546 26.546 26.546h46.847c-14.661.001-26.546-11.885-26.546-26.546z" fill="#fcf2d0"></path></g><g><path d="m215.114 439.079h-116.804c-14.661 0-26.546-11.885-26.546-26.546s11.885-26.546 26.546-26.546h116.804c14.661 0 26.546 11.885 26.546 26.546 0 14.66-11.885 26.546-26.546 26.546z" fill="#fff9e7"></path><path d="m117.524 412.532c0-14.661 11.885-26.546 26.546-26.546h-45.76c-14.661 0-26.546 11.885-26.546 26.546s11.885 26.546 26.546 26.546h45.76c-14.661.001-26.546-11.885-26.546-26.546z" fill="#fcf2d0"></path></g><g fill="#fff"><ellipse cx="176.443" cy="154.734" rx="29.355" ry="23.377"></ellipse><ellipse cx="335.557" cy="154.734" rx="29.355" ry="23.377"></ellipse></g></g><g><path d="m201.053 132.237v-11.999c0-4.142-3.357-7.5-7.5-7.5s-7.5 3.358-7.5 7.5v11.999c0 4.142 3.357 7.5 7.5 7.5s7.5-3.358 7.5-7.5z"></path><path d="m318.445 139.737c4.142 0 7.5-3.358 7.5-7.5v-11.999c0-4.142-3.357-7.5-7.5-7.5s-7.5 3.358-7.5 7.5v11.999c.001 4.142 3.358 7.5 7.5 7.5z"></path><path d="m256 146.88c8.477 0 16.538-3.671 22.117-10.072 2.722-3.123 2.395-7.86-.727-10.582-3.125-2.721-7.861-2.396-10.582.727-2.729 3.132-6.669 4.928-10.809 4.928s-8.08-1.796-10.809-4.928c-2.723-3.122-7.461-3.447-10.582-.727-3.122 2.722-3.448 7.459-.727 10.582 5.581 6.401 13.642 10.072 22.119 10.072z"></path><path d="m2.157 267.745 24.601 62.555c4.059 13.251 20.55 40.662 49.537 56.293-7.348 6.25-12.023 15.553-12.023 25.933 0 13.126 7.471 24.532 18.38 30.212v47.389c0 4.142 3.357 7.5 7.5 7.5h133.129c4.142 0 7.5-3.358 7.5-7.5v-47.389c10.909-5.679 18.38-17.086 18.38-30.212 0-11.601-5.836-21.86-14.723-28.009 9.363-6.994 16.735-16.177 21.562-26.596 4.827 10.419 12.199 19.602 21.562 26.596-8.886 6.149-14.723 16.408-14.723 28.009 0 13.126 7.471 24.533 18.38 30.212v47.389c0 4.142 3.357 7.5 7.5 7.5h133.129c4.142 0 7.5-3.358 7.5-7.5v-47.389c10.909-5.679 18.38-17.086 18.38-30.212 0-10.38-4.675-19.683-12.023-25.933 28.989-15.632 45.479-43.043 49.537-56.293l24.601-62.555c.036-.092.07-.185.104-.278 3.215-9.231 2.64-19.16-1.62-27.958s-11.691-15.407-20.926-18.61c-10.041-3.482-20.592-2.31-29.293 2.366v-65.629c0-11.166-5.964-21.415-15.289-27.087.167-2.102.267-4.192.286-6.267.269-29.852-11.368-58.835-31.926-79.519-19.557-19.676-45.528-30.503-73.032-30.388-32.313 0-62.313 14.58-82.188 39.482-19.858-24.902-49.759-39.482-81.918-39.482-21.19 0-41.493 6.355-58.715 18.377-3.396 2.371-4.227 7.046-1.856 10.442 2.37 3.396 7.044 4.228 10.442 1.857 14.691-10.256 32.026-15.677 50.13-15.677 30.651 0 58.917 15.471 75.612 41.385 1.381 2.143 3.755 3.438 6.304 3.438s4.924-1.295 6.304-3.438c16.695-25.914 45.063-41.385 75.907-41.385h.262c23.414 0 45.464 9.214 62.111 25.963 17.751 17.86 27.799 42.94 27.565 68.81-.029 3.184-.266 6.375-.695 9.57-.012.071-.022.143-.031.214-6.488 47.402-55.247 95.456-96.512 128.328-3.24 2.581-3.774 7.299-1.193 10.539 1.481 1.859 3.665 2.828 5.871 2.828 1.638 0 3.287-.535 4.668-1.634 21.343-17.002 39.593-33.905 54.512-50.458v22.348c0 4.142 3.357 7.5 7.5 7.5s7.5-3.358 7.5-7.5v-40.328c15.282-19.972 25.365-39.308 30.149-57.756 2.048 2.804 3.236 6.23 3.236 9.84v80.7c-.832 1.575-1.562 3.227-2.171 4.956l-12.552 32.589c-11.809 4.376-42.998 18.613-56.93 50.115-1.675 3.788.038 8.217 3.826 9.892 3.787 1.676 8.216-.036 9.892-3.825 18.305-38.172 49.548-37.611 55.989-47.621l13.814-35.865c.029-.076.057-.152.084-.229 3.905-11.213 16.209-17.168 27.426-13.278 5.446 1.889 9.829 5.786 12.34 10.975 2.492 5.147 2.846 10.951 1 16.358l-24.407 62.06c-.17.36-.312.735-.424 1.123-3.468 12.021-21.89 41.71-54.253 53.04-1.009-.09-2.028-.144-3.06-.144h-116.802c-.686 0-1.366.026-2.043.067-.631-.898-1.45-1.669-2.438-2.226-17.182-9.687-27.855-27.932-27.855-47.616v-2.494c2.388-1.412 5.909-3.524 10.263-6.226 8.532-5.296 21.892-13.88 37.087-24.696 3.374-2.402 4.162-7.085 1.761-10.459-2.403-3.374-7.084-4.163-10.459-1.761-22.072 15.712-40.032 26.571-47.321 30.843-12.136-7.029-51.708-31.551-88.9-63.42-39.006-33.423-85.071-83.223-83.02-130.667.813-18.817 6.755-36.733 17.182-51.811 2.355-3.407 1.504-8.078-1.903-10.434-3.408-2.358-8.078-1.503-10.434 1.902-12.038 17.407-18.895 38.049-19.83 59.695-.162 3.739-.069 7.521.253 11.342-9.353 5.665-15.332 15.922-15.332 27.117v65.63c-8.701-4.677-19.252-5.85-29.293-2.367-9.236 3.203-16.667 9.812-20.927 18.61-4.26 8.798-4.835 18.727-1.62 27.958.031.089.066.181.102.274zm412.191 214.882h-118.13v-36.073c.222.004 117.907.004 118.13 0zm-.666-89.147c9.199-.35 19.248 8.486 19.046 19.046 0 10.502-8.544 19.046-19.046 19.046h-116.798c-10.501 0-19.045-8.544-19.045-19.046s8.544-19.046 19.045-19.046zm-197.901 89.147h-118.129v-36.073c.222.004 117.907.004 118.13 0v36.073zm-.665-51.056h-116.798c-10.502 0-19.046-8.544-19.046-19.046.189-9.88 8.231-19.116 19.046-19.046h116.799c10.501 0 19.045 8.544 19.045 19.046-.001 10.503-8.544 19.046-19.046 19.046zm-197.942-185.526c2.512-5.188 6.894-9.086 12.341-10.975 11.216-3.893 23.52 2.065 27.425 13.278.027.077.055.153.084.229l13.814 35.865c5.914 9.351 38.102 10.156 55.989 47.621 1.676 3.788 6.108 5.501 9.892 3.825 3.788-1.675 5.501-6.104 3.826-9.892-13.932-31.502-45.121-45.739-56.93-50.115l-12.552-32.589c-.609-1.728-1.338-3.379-2.17-4.953v-80.703c0-3.661 1.22-7.129 3.316-9.952 4.813 18.367 14.861 37.58 30.068 57.517v40.678c0 4.142 3.357 7.5 7.5 7.5 4.142 0 7.5-3.358 7.5-7.5v-22.64c5.341 5.948 11.105 11.953 17.322 18.015 36.619 35.707 78.98 64.111 100.971 77.864 5.316 3.324 9.352 5.735 11.883 7.218v2.368c0 19.684-10.673 37.929-27.855 47.616-.989.558-1.807 1.329-2.438 2.226-.676-.04-1.357-.067-2.043-.067h-116.799c-31.932-5.639-54.791-42.205-57.732-54.006l-24.412-62.071c-1.846-5.406-1.492-11.21 1-16.357z"></path></g></g></svg>